<svg width="130" height="36" viewBox="0 0 130 36" fill="none" xmlns="http://www.w3.org/2000/svg">
<g id="logo" clip-path="url(#clip0_6_2342)">
<g id="Logo">
<g id="Icon 1">
<g id="g20 1">
<path id="path22 1" d="M30.5142 15.1909C30.5142 15.0952 30.5313 15.0043 30.5547 14.9161L19.3891 21.3036C18.8534 21.6126 18.2868 21.8443 17.7051 22.0029V23.6203C18.5694 23.4289 19.4035 23.109 20.1739 22.6653L31.408 16.2375C30.9011 16.1548 30.5142 15.7193 30.5142 15.1909Z" fill="white"/>
</g>
<g id="g24 1">
<path id="path26 1" d="M30.5142 21.0584C30.5142 20.9497 30.5354 20.8465 30.5656 20.7474L19.3891 27.1417C18.8534 27.4507 18.2868 27.6824 17.7051 27.841V29.4584C18.5694 29.267 19.4035 28.9471 20.1739 28.5034L31.3648 22.1002C30.8791 22.0004 30.5142 21.5718 30.5142 21.0584Z" fill="white"/>
</g>
<g id="g28 1">
<path id="path30 1" d="M30.5142 26.926C30.5142 26.8036 30.5389 26.6881 30.5766 26.5787L19.3891 32.9799C18.8534 33.2889 18.2868 33.5206 17.7051 33.6792V35.2966C18.5694 35.1052 19.4035 34.7852 20.1739 34.3416L31.3311 27.9575C30.8626 27.8454 30.5142 27.427 30.5142 26.926Z" fill="white"/>
</g>
<g id="g32 1">
<path id="path34 1" d="M15.8171 26.5257C14.8409 26.5257 13.8778 26.2687 13.0279 25.7799L0 18.3397V21.9593L11.4564 28.5027C12.7803 29.2635 14.288 29.6662 15.8171 29.6662C15.9028 29.6662 15.9886 29.6641 16.0743 29.6621V26.5182C15.9886 26.521 15.9028 26.5257 15.8171 26.5257Z" fill="white"/>
</g>
<g id="g36 1">
<path id="path38 1" d="M15.8171 20.6876C14.8409 20.6876 13.8778 20.4306 13.0279 19.9418L0 12.5016V16.1205L11.4564 22.6639C12.7803 23.4254 14.288 23.8281 15.8171 23.8281C15.9028 23.8281 15.9886 23.826 16.0743 23.824V20.6801C15.9886 20.6835 15.9028 20.6876 15.8171 20.6876Z" fill="white"/>
</g>
<g id="g40 1">
<path id="path42 1" d="M19.3897 15.5672C18.3614 16.1585 17.2227 16.475 16.0757 16.516C14.9288 16.4743 13.7894 16.1585 12.7611 15.5672L1.79594 9.29388L12.7611 3.01985C13.7894 2.42786 14.9288 2.11204 16.0751 2.07103C17.222 2.11204 18.3614 2.42855 19.3897 3.01985L28.7188 8.35735L30.3007 7.45228L20.1737 1.65814C18.928 0.941046 17.5156 0.543196 16.0757 0.50013C16.0751 0.50013 16.0751 0.50013 16.0744 0.50013C16.0737 0.50013 16.0737 0.50013 16.073 0.50013C14.6338 0.543196 13.2214 0.94173 11.975 1.65814L0.22644 8.38128V8.39564V10.1914V10.2058L11.9764 16.9289C13.2221 17.646 14.6345 18.0439 16.0737 18.0869H16.0751H16.0757C17.5156 18.0439 18.928 17.646 20.1737 16.9289L31.9237 10.2058V8.39564L19.3897 15.5672Z" fill="white"/>
</g>
<g id="g44 1">
<path id="path46 1" d="M15.8171 32.3596C14.8409 32.3596 13.8778 32.1025 13.0279 31.6138L0 24.1735V27.7925L11.4564 34.3358C12.7803 35.0974 14.288 35.5 15.8171 35.5C15.9028 35.5 15.9886 35.4979 16.0743 35.4959V32.3521C15.9886 32.3548 15.9028 32.3596 15.8171 32.3596Z" fill="white"/>
</g>
<g id="g48 1">
<path id="path50 1" fill-rule="evenodd" clip-rule="evenodd" d="M30.301 21.0584C30.301 20.3537 30.8745 19.7822 31.5817 19.7822C32.2889 19.7822 32.8624 20.3537 32.8624 21.0584C32.8631 21.7639 32.2896 22.3354 31.5817 22.3354C30.8738 22.3354 30.301 21.7639 30.301 21.0584ZM32.1826 21.0584C32.1826 20.7283 31.913 20.4596 31.5817 20.4596C31.2504 20.4596 30.9808 20.7283 30.9808 21.0584C30.9808 21.3893 31.2504 21.6579 31.5817 21.6579C31.913 21.6573 32.1826 21.3886 32.1826 21.0584Z" fill="white"/>
</g>
<g id="g52 1">
<path id="path54 1" fill-rule="evenodd" clip-rule="evenodd" d="M30.301 26.9258C30.301 26.2211 30.8745 25.6496 31.5817 25.6496C32.2889 25.6496 32.8624 26.2211 32.8624 26.9258C32.8631 27.6313 32.2896 28.2028 31.5817 28.2028C30.8738 28.2028 30.301 27.6313 30.301 26.9258ZM32.1826 26.9258C32.1826 26.5957 31.913 26.327 31.5817 26.327C31.2504 26.327 30.9808 26.5957 30.9808 26.9258C30.9808 27.2567 31.2504 27.5247 31.5817 27.5247C31.913 27.5247 32.1826 27.2567 32.1826 26.9258Z" fill="white"/>
</g>
<g id="g56 1">
<path id="path58 1" fill-rule="evenodd" clip-rule="evenodd" d="M30.301 15.1911C30.301 14.4864 30.8745 13.9142 31.5817 13.9142C32.2889 13.9142 32.8624 14.4857 32.8624 15.1911C32.8624 15.8966 32.2896 16.4674 31.5817 16.4674C30.8738 16.4674 30.301 15.8959 30.301 15.1911ZM32.1826 15.1911C32.1826 14.8603 31.913 14.5916 31.5817 14.5916C31.2504 14.5916 30.9808 14.8603 30.9808 15.1911C30.9808 15.5213 31.2504 15.79 31.5817 15.79C31.913 15.79 32.1826 15.5213 32.1826 15.1911Z" fill="white"/>
</g>
</g>
<g id="Text 1">
<g id="g60 1">
<path id="path62 1" d="M46.9759 21.6963C46.9739 21.6997 46.9718 21.7017 46.9698 21.7045C46.9684 21.7017 46.9663 21.6997 46.965 21.6963L41.554 11.6789H38.5234L44.7122 23.0286C45.0175 23.5878 45.3255 23.959 45.6369 24.1415C45.9483 24.324 46.3421 24.4149 46.8182 24.4149H47.3793C47.7696 24.4149 48.1119 24.324 48.4048 24.1415C48.6977 23.959 48.9968 23.5878 49.3021 23.0286L55.4346 11.6796H52.3368L46.9759 21.6963Z" fill="white"/>
</g>
<g id="g64 1">
<path id="path66 1" d="M66.4769 21.8788C66.0008 21.8788 65.6071 21.8398 65.2957 21.7598C64.9842 21.6805 64.7339 21.5472 64.5445 21.3586C64.3552 21.1699 64.2242 20.9142 64.1508 20.5923C64.0774 20.2703 64.041 19.8718 64.041 19.3973V19.087H74.2332V16.8428H64.0417V16.6602C64.0417 16.1858 64.0781 15.7873 64.1515 15.4653C64.2249 15.1433 64.3559 14.8877 64.5452 14.699C64.7345 14.5103 64.9849 14.377 65.2963 14.2977C65.6078 14.2184 66.0015 14.1788 66.4776 14.1788H74.2345V11.6796H65.5049C64.9657 11.7199 64.48 11.7931 64.0595 11.9079C63.4127 12.0843 62.8845 12.3639 62.4756 12.7474C62.0661 13.1308 61.7677 13.6265 61.5784 14.2342C61.3898 14.8419 61.2951 15.5843 61.2951 16.4593V19.5983C61.2951 20.474 61.3898 21.2191 61.5784 21.833C61.7677 22.4475 62.0668 22.9459 62.4756 23.3294C62.8845 23.7129 63.4127 23.9897 64.0595 24.1599C64.7064 24.3302 65.4939 24.4149 66.422 24.4149H74.2338V21.8788H66.4769Z" fill="white"/>
</g>
<g id="g68 1">
<path id="path70 1" d="M90.1628 14.2519V11.6789H76.106V14.2519H81.6973V24.4149H84.4988V14.2519H90.1628Z" fill="white"/>
</g>
<path id="path72 1" d="M108.71 24.4148H111.511V11.6788H108.71V24.4148Z" fill="white"/>
<path id="path74 1" d="M56.3387 24.4148H59.1402V11.6788H56.3387V24.4148Z" fill="white"/>
<g id="g76 1">
<path id="path78 1" d="M121.742 16.1364L121.737 16.1309L119.741 14.0145L117.614 11.6787H113.918L119.538 17.6998L113.166 24.4147H116.871L121.572 19.4334L126.253 24.4147H129.87L123.758 17.8857L130 11.6794H126.24L121.742 16.1364Z" fill="white"/>
</g>
<g id="g80 1">
<path id="path82 1" d="M103.461 11.6427V21.5644L96.695 12.7194C96.5242 12.4883 96.3712 12.3031 96.2375 12.163C96.103 12.0228 95.9631 11.9134 95.8163 11.8341C95.6695 11.7555 95.4987 11.7036 95.3032 11.6797C95.1077 11.6557 94.8642 11.6434 94.5713 11.6434H93.5649C93.0031 11.6434 92.5881 11.774 92.3199 12.0358C92.051 12.2969 91.9166 12.798 91.9166 13.5404V24.415H94.6632V14.5063L101.438 23.3383C101.62 23.5817 101.783 23.7738 101.923 23.9133C102.063 24.0527 102.206 24.1593 102.353 24.2325C102.5 24.3056 102.667 24.3542 102.856 24.3781C103.046 24.4027 103.28 24.415 103.562 24.415H104.542C105.104 24.415 105.518 24.2844 105.787 24.0226C106.056 23.7615 106.19 23.2591 106.19 22.5174V11.6427H103.461Z" fill="white"/>
</g>
</g>
</g>
<g id="SEO TOOLS">
<path id="Vector" d="M128.21 33.6377C128.21 33.5157 128.191 33.4062 128.153 33.3092C128.119 33.2091 128.053 33.1184 127.956 33.0371C127.859 32.9526 127.723 32.8698 127.548 32.7884C127.373 32.7071 127.146 32.6226 126.868 32.5351C126.558 32.435 126.264 32.3224 125.986 32.1972C125.71 32.0721 125.466 31.9267 125.254 31.7609C125.044 31.592 124.878 31.3965 124.756 31.1744C124.637 30.9523 124.578 30.6943 124.578 30.4002C124.578 30.1156 124.641 29.8575 124.766 29.6261C124.891 29.3915 125.066 29.1913 125.291 29.0255C125.516 28.8566 125.782 28.7268 126.089 28.6361C126.399 28.5454 126.738 28.5 127.107 28.5C127.611 28.5 128.05 28.5907 128.425 28.7721C128.801 28.9536 129.092 29.2022 129.298 29.5181C129.508 29.8341 129.612 30.1954 129.612 30.602H128.214C128.214 30.4018 128.172 30.2266 128.088 30.0765C128.006 29.9232 127.881 29.8028 127.712 29.7152C127.546 29.6276 127.337 29.5838 127.084 29.5838C126.84 29.5838 126.636 29.6214 126.474 29.6964C126.311 29.7684 126.189 29.8669 126.108 29.992C126.026 30.114 125.986 30.2517 125.986 30.4049C125.986 30.5207 126.014 30.6254 126.07 30.7193C126.13 30.8131 126.217 30.9007 126.333 30.982C126.449 31.0634 126.591 31.14 126.76 31.2119C126.929 31.2839 127.124 31.3543 127.346 31.4231C127.719 31.5357 128.045 31.6624 128.327 31.8031C128.612 31.9439 128.849 32.1018 129.04 32.277C129.231 32.4522 129.375 32.6508 129.472 32.8729C129.569 33.095 129.617 33.3468 129.617 33.6283C129.617 33.9254 129.559 34.1913 129.444 34.4259C129.328 34.6605 129.161 34.8591 128.942 35.0218C128.723 35.1844 128.461 35.308 128.158 35.3924C127.855 35.4769 127.515 35.5191 127.14 35.5191C126.802 35.5191 126.469 35.4753 126.14 35.3878C125.812 35.297 125.513 35.161 125.244 34.9796C124.978 34.7981 124.766 34.5667 124.606 34.2852C124.447 34.0036 124.367 33.6705 124.367 33.2858H125.779C125.779 33.4985 125.812 33.6783 125.878 33.8253C125.943 33.9724 126.036 34.0912 126.155 34.1819C126.277 34.2726 126.42 34.3383 126.586 34.379C126.755 34.4197 126.94 34.44 127.14 34.44C127.384 34.44 127.584 34.4056 127.74 34.3368C127.9 34.2679 128.017 34.1725 128.092 34.0506C128.171 33.9286 128.21 33.7909 128.21 33.6377Z" fill="white"/>
<path id="Vector_2" d="M123.846 34.3274V35.4253H120.407V34.3274H123.846ZM120.862 28.5938V35.4253H119.454V28.5938H120.862Z" fill="white"/>
<path id="Vector_3" d="M118.441 31.85V32.1738C118.441 32.693 118.371 33.1591 118.23 33.572C118.089 33.9849 117.89 34.3368 117.634 34.6277C117.378 34.9154 117.071 35.136 116.714 35.2892C116.361 35.4425 115.968 35.5191 115.537 35.5191C115.108 35.5191 114.716 35.4425 114.359 35.2892C114.006 35.136 113.699 34.9154 113.439 34.6277C113.18 34.3368 112.978 33.9849 112.834 33.572C112.693 33.1591 112.623 32.693 112.623 32.1738V31.85C112.623 31.3277 112.693 30.8616 112.834 30.4518C112.975 30.039 113.174 29.6871 113.43 29.3962C113.69 29.1053 113.996 28.8832 114.35 28.7299C114.706 28.5766 115.099 28.5 115.527 28.5C115.959 28.5 116.352 28.5766 116.705 28.7299C117.062 28.8832 117.368 29.1053 117.625 29.3962C117.884 29.6871 118.084 30.039 118.225 30.4518C118.369 30.8616 118.441 31.3277 118.441 31.85ZM117.019 32.1738V31.8407C117.019 31.4778 116.987 31.1588 116.921 30.8835C116.855 30.6082 116.758 30.3768 116.63 30.1891C116.502 30.0014 116.345 29.8607 116.161 29.7668C115.976 29.6699 115.765 29.6214 115.527 29.6214C115.29 29.6214 115.078 29.6699 114.894 29.7668C114.712 29.8607 114.558 30.0014 114.429 30.1891C114.304 30.3768 114.209 30.6082 114.143 30.8835C114.078 31.1588 114.045 31.4778 114.045 31.8407V32.1738C114.045 32.5335 114.078 32.8525 114.143 33.1309C114.209 33.4062 114.306 33.6392 114.434 33.83C114.562 34.0177 114.719 34.16 114.903 34.257C115.088 34.354 115.299 34.4025 115.537 34.4025C115.774 34.4025 115.986 34.354 116.17 34.257C116.355 34.16 116.51 34.0177 116.635 33.83C116.76 33.6392 116.855 33.4062 116.921 33.1309C116.987 32.8525 117.019 32.5335 117.019 32.1738Z" fill="white"/>
<path id="Vector_4" d="M111.816 31.85V32.1738C111.816 32.693 111.746 33.1591 111.605 33.572C111.464 33.9849 111.265 34.3368 111.009 34.6277C110.752 34.9154 110.446 35.136 110.089 35.2892C109.736 35.4425 109.343 35.5191 108.912 35.5191C108.483 35.5191 108.091 35.4425 107.734 35.2892C107.381 35.136 107.074 34.9154 106.814 34.6277C106.555 34.3368 106.353 33.9849 106.209 33.572C106.068 33.1591 105.998 32.693 105.998 32.1738V31.85C105.998 31.3277 106.068 30.8616 106.209 30.4518C106.35 30.039 106.549 29.6871 106.805 29.3962C107.065 29.1053 107.371 28.8832 107.725 28.7299C108.081 28.5766 108.474 28.5 108.902 28.5C109.334 28.5 109.727 28.5766 110.08 28.7299C110.437 28.8832 110.743 29.1053 111 29.3962C111.259 29.6871 111.459 30.039 111.6 30.4518C111.744 30.8616 111.816 31.3277 111.816 31.85ZM110.394 32.1738V31.8407C110.394 31.4778 110.361 31.1588 110.296 30.8835C110.23 30.6082 110.133 30.3768 110.005 30.1891C109.877 30.0014 109.72 29.8607 109.536 29.7668C109.351 29.6699 109.14 29.6214 108.902 29.6214C108.665 29.6214 108.453 29.6699 108.269 29.7668C108.087 29.8607 107.933 30.0014 107.804 30.1891C107.679 30.3768 107.584 30.6082 107.518 30.8835C107.453 31.1588 107.42 31.4778 107.42 31.8407V32.1738C107.42 32.5335 107.453 32.8525 107.518 33.1309C107.584 33.4062 107.681 33.6392 107.809 33.83C107.937 34.0177 108.094 34.16 108.278 34.257C108.463 34.354 108.674 34.4025 108.912 34.4025C109.149 34.4025 109.361 34.354 109.545 34.257C109.73 34.16 109.884 34.0177 110.01 33.83C110.135 33.6392 110.23 33.4062 110.296 33.1309C110.361 32.8525 110.394 32.5335 110.394 32.1738Z" fill="white"/>
<path id="Vector_5" d="M103.432 28.5938V35.4253H102.029V28.5938H103.432ZM105.534 28.5938V29.6964H99.9595V28.5938H105.534Z" fill="white"/>
<path id="Vector_6" d="M97.2241 31.85V32.1738C97.2241 32.693 97.1537 33.1591 97.0129 33.572C96.8722 33.9849 96.6736 34.3368 96.4171 34.6277C96.1606 34.9154 95.854 35.136 95.4974 35.2892C95.144 35.4425 94.7514 35.5191 94.3198 35.5191C93.8912 35.5191 93.4987 35.4425 93.1421 35.2892C92.7886 35.136 92.4821 34.9154 92.2225 34.6277C91.9629 34.3368 91.7611 33.9849 91.6172 33.572C91.4765 33.1591 91.4061 32.693 91.4061 32.1738V31.85C91.4061 31.3277 91.4765 30.8616 91.6172 30.4518C91.758 30.039 91.9566 29.6871 92.2131 29.3962C92.4727 29.1053 92.7793 28.8832 93.1327 28.7299C93.4893 28.5766 93.8819 28.5 94.3104 28.5C94.742 28.5 95.1346 28.5766 95.4881 28.7299C95.8447 28.8832 96.1512 29.1053 96.4077 29.3962C96.6673 29.6871 96.8675 30.039 97.0082 30.4518C97.1521 30.8616 97.2241 31.3277 97.2241 31.85ZM95.8024 32.1738V31.8407C95.8024 31.4778 95.7696 31.1588 95.7039 30.8835C95.6382 30.6082 95.5412 30.3768 95.413 30.1891C95.2847 30.0014 95.1283 29.8607 94.9438 29.7668C94.7593 29.6699 94.5481 29.6214 94.3104 29.6214C94.0727 29.6214 93.8615 29.6699 93.677 29.7668C93.4956 29.8607 93.3407 30.0014 93.2125 30.1891C93.0874 30.3768 92.992 30.6082 92.9263 30.8835C92.8606 31.1588 92.8277 31.4778 92.8277 31.8407V32.1738C92.8277 32.5335 92.8606 32.8525 92.9263 33.1309C92.992 33.4062 93.0889 33.6392 93.2172 33.83C93.3454 34.0177 93.5018 34.16 93.6864 34.257C93.8709 34.354 94.082 34.4025 94.3198 34.4025C94.5575 34.4025 94.7686 34.354 94.9532 34.257C95.1377 34.16 95.2926 34.0177 95.4177 33.83C95.5428 33.6392 95.6382 33.4062 95.7039 33.1309C95.7696 32.8525 95.8024 32.5335 95.8024 32.1738Z" fill="white"/>
<path id="Vector_7" d="M90.7914 34.3274V35.4253H87.1552V34.3274H90.7914ZM87.615 28.5938V35.4253H86.2074V28.5938H87.615ZM90.3176 31.3762V32.4459H87.1552V31.3762H90.3176ZM90.7868 28.5938V29.6964H87.1552V28.5938H90.7868Z" fill="white"/>
<path id="Vector_8" d="M83.8427 33.6377C83.8427 33.5157 83.8239 33.4062 83.7864 33.3092C83.752 33.2091 83.6863 33.1184 83.5893 33.0371C83.4924 32.9526 83.3563 32.8698 83.1811 32.7884C83.006 32.7071 82.7792 32.6226 82.5008 32.5351C82.1911 32.435 81.8971 32.3224 81.6187 32.1972C81.3435 32.0721 81.0995 31.9267 80.8868 31.7609C80.6772 31.592 80.5114 31.3965 80.3894 31.1744C80.2706 30.9523 80.2111 30.6943 80.2111 30.4002C80.2111 30.1156 80.2737 29.8575 80.3988 29.6261C80.5239 29.3915 80.6991 29.1913 80.9243 29.0255C81.1495 28.8566 81.4154 28.7268 81.7219 28.6361C82.0316 28.5454 82.371 28.5 82.7401 28.5C83.2437 28.5 83.6832 28.5907 84.0585 28.7721C84.4339 28.9536 84.7248 29.2022 84.9312 29.5181C85.1408 29.8341 85.2456 30.1954 85.2456 30.602H83.8474C83.8474 30.4018 83.8052 30.2266 83.7207 30.0765C83.6394 29.9232 83.5143 29.8028 83.3453 29.7152C83.1796 29.6276 82.97 29.5838 82.7166 29.5838C82.4726 29.5838 82.2693 29.6214 82.1067 29.6964C81.944 29.7684 81.822 29.8669 81.7407 29.992C81.6594 30.114 81.6187 30.2517 81.6187 30.4049C81.6187 30.5207 81.6469 30.6254 81.7032 30.7193C81.7626 30.8131 81.8502 30.9007 81.9659 30.982C82.0817 31.0634 82.224 31.14 82.3929 31.2119C82.5618 31.2839 82.7573 31.3543 82.9794 31.4231C83.3516 31.5357 83.6785 31.6624 83.96 31.8031C84.2446 31.9439 84.4824 32.1018 84.6732 32.277C84.864 32.4522 85.0079 32.6508 85.1048 32.8729C85.2018 33.095 85.2503 33.3468 85.2503 33.6283C85.2503 33.9254 85.1924 34.1913 85.0767 34.4259C84.9609 34.6605 84.7936 34.8591 84.5746 35.0218C84.3557 35.1844 84.0945 35.308 83.7911 35.3924C83.4877 35.4769 83.1483 35.5191 82.7729 35.5191C82.4351 35.5191 82.102 35.4753 81.7736 35.3878C81.4451 35.297 81.1464 35.161 80.8774 34.9796C80.6115 34.7981 80.3988 34.5667 80.2393 34.2852C80.0798 34.0036 80 33.6705 80 33.2858H81.4123C81.4123 33.4985 81.4451 33.6783 81.5108 33.8253C81.5765 33.9724 81.6688 34.0912 81.7876 34.1819C81.9096 34.2726 82.0535 34.3383 82.2193 34.379C82.3882 34.4197 82.5727 34.44 82.7729 34.44C83.0169 34.44 83.2171 34.4056 83.3735 34.3368C83.533 34.2679 83.6503 34.1725 83.7254 34.0506C83.8036 33.9286 83.8427 33.7909 83.8427 33.6377Z" fill="white"/>
</g>
</g>
<defs>
<clipPath id="clip0_6_2342">
<rect width="130" height="35" fill="white" transform="translate(0 0.5)"/>
</clipPath>
</defs>
</svg>
